<?xml version="1.0" encoding="utf-8"?>
<!-- Generator: Adobe Illustrator 21.0.0, SVG Export Plug-In . SVG Version: 6.00 Build 0)  -->
<svg version="1.1" id="Layer_1" xmlns="http://www.w3.org/2000/svg" xmlns:xlink="http://www.w3.org/1999/xlink" x="0px" y="0px"
	 viewBox="0 0 175.5 160.3" style="enable-background:new 0 0 175.5 160.3;" xml:space="preserve">
<style type="text/css">
	.st0{fill:#5B53FF;}
	.st1{fill:none;stroke:#5B53FF;stroke-width:8;stroke-linecap:round;stroke-linejoin:round;stroke-miterlimit:10;}
</style>
<title>Asset 1</title>
<g>
	<path class="st0" d="M54.2,18.9c0.6,0,1.8,0.2,2.8,1.2l2.5,2.5c1.5,1.5,1.5,4.1,0,5.7L35.7,51.9c-1,1-2.2,1.2-2.8,1.2
		c-0.6,0-1.8-0.2-2.8-1.2l-2.5-2.5c-1.5-1.5-1.5-4.1,0-5.7l23.7-23.7C52.4,19,53.6,18.9,54.2,18.9 M54.2,10.9
		c-3.1,0-6.2,1.2-8.5,3.5L22,38.1c-4.7,4.7-4.7,12.3,0,17l2.5,2.5c2.3,2.3,5.4,3.5,8.5,3.5c3.1,0,6.2-1.2,8.5-3.5l23.7-23.7
		c4.7-4.7,4.7-12.3,0-17l-2.5-2.5C60.3,12.1,57.3,10.9,54.2,10.9L54.2,10.9z"/>
</g>
<g>
	<path class="st0" d="M28,7.8c0.4,0,1.3,0.1,2,0.8l1.3,1.3c1.1,1.1,1.1,2.9,0,4l-9.9,9.9c-0.7,0.7-1.6,0.8-2,0.8
		c-0.4,0-1.3-0.1-2-0.8l-1.3-1.3c-1.1-1.1-1.1-2.9,0-4L26,8.6C26.7,7.9,27.6,7.8,28,7.8 M28-0.2c-2.8,0-5.6,1.1-7.7,3.2l-9.9,9.9
		c-4.2,4.2-4.2,11.1,0,15.3l1.3,1.3c2.1,2.1,4.9,3.2,7.7,3.2s5.6-1.1,7.7-3.2l9.9-9.9c4.2-4.2,4.2-11.1,0-15.3l-1.3-1.3
		C33.6,0.8,30.8-0.2,28-0.2L28-0.2z"/>
</g>
<g>
	<path class="st0" d="M84.8,31.8c0.6,0,1.8,0.2,2.8,1.2l6.8,6.8c1,1,1.2,2.2,1.2,2.8c0,0.6-0.2,1.8-1.2,2.8L53,86.9
		c-1,1-2.2,1.2-2.8,1.2s-1.8-0.2-2.8-1.2L40.5,80c-1-1-1.2-2.2-1.2-2.8c0-0.6,0.2-1.8,1.2-2.8L82,32.9C83,31.9,84.2,31.8,84.8,31.8
		 M84.8,23.8c-3.1,0-6.2,1.2-8.5,3.5L34.8,68.7c-4.7,4.7-4.7,12.3,0,17l6.8,6.8c2.3,2.3,5.4,3.5,8.5,3.5s6.2-1.2,8.5-3.5l41.5-41.5
		c4.7-4.7,4.7-12.3,0-17l-6.8-6.8C90.9,24.9,87.9,23.8,84.8,23.8L84.8,23.8z"/>
</g>
<g>
	<path class="st0" d="M116.8,52.6c2.5,0,5.4,1.8,7,4.4l4.7,7.4c12.6,19.9,19,41.8,18.5,63.4c0,1.4,0.3,2.7,0.9,3.9l10.2,18.9
		l-19-9.3c-1.1-0.5-2.3-0.8-3.5-0.8c0,0,0,0-0.1,0l-0.7,0c-21.1,0-42.4-6.5-61.7-18.8l-8.8-5.6c-2.9-1.8-4.7-5.2-4.3-7.7
		c0.1-0.8,0.5-1.4,1-1.9l53.1-53.1c0.4-0.4,0.8-0.6,1.3-0.8C115.9,52.7,116.4,52.6,116.8,52.6 M116.8,44.6c-1.3,0-2.6,0.2-3.8,0.6
		c-1.6,0.6-3.2,1.5-4.4,2.7L55.5,101c-1.7,1.7-2.7,3.8-3.2,6.1c-1.1,5.8,2.3,12.3,7.9,15.9l8.8,5.6c20.5,13.1,43.5,20,66,20
		c0.2,0,0.5,0,0.7,0l23.1,11.3c0.9,0.3,1.7,0.4,2.5,0.4c4.5,0,7.7-4.1,6.3-9L155.1,128c0.5-23-6.4-46.7-19.7-67.8l-4.7-7.4
		C127.5,47.8,122,44.6,116.8,44.6L116.8,44.6z"/>
</g>
<line class="st1" x1="111.9" y1="119" x2="111.9" y2="89.7"/>
<line class="st1" x1="96.5" y1="104.4" x2="127.4" y2="104.4"/>
</svg>
